# AST/ASF file generated using VICON BodyLanguage
# -----------------------------------------------
:version 1.10
:name VICON
:units
  mass 1.0
  length 0.45
  angle deg
:documentation
   .ast/.asf automatically generated from VICON data using
   VICON BodyBuilder and BodyLanguage model FoxedUp or BRILLIANT.MOD
:root
   order TX TY TZ RX RY RZ
   axis XYZ
   position 0 0 0  
   orientation 0 0 0 
:bonedata
  begin
     id 1 
     name lhipjoint
     direction 0.822369 -0.411937 0.392449 
     length 3.8167 
     axis 0 0 0  XYZ
  end
  begin
     id 2 
     name lfemur
     direction 0.34202 -0.939693 0  
     length 6.16791  
     axis 0 0 20  XYZ
    dof rx ry rz
    limits (-160.0 20.0)
           (-70.0 70.0)
           (-60.0 70.0)
  end
  begin
     id 3 
     name ltibia
     direction 0.34202 -0.939693 0   
     length 7.07101   
     axis 0 0 20   XYZ
    dof rx
    limits (-10.0 170.0)
  end
  begin
     id 4 
     name lfoot
     direction 0.028254 -0.0776273 0.996582   
     length 1.66799   
     axis -90 7.62852e-016 20   XYZ
    dof rx rz
    limits (-45.0 90.0)
           (-70.0 20.0)
  end
  begin
     id 5 
     name ltoes
     direction 1.53483e-011 -4.21688e-011 1   
     length 0.851674   
     axis -90 7.62852e-016 20   XYZ
    dof rx
    limits (-90.0 20.0)
  end
  begin
     id 6 
     name rhipjoint
     direction -0.822466 -0.411836 0.392353   
     length 3.81764  
     axis 0 0 0  XYZ 
  end
  begin
     id 7 
     name rfemur
     direction -0.34202 -0.939693 0   
     length 6.28636   
     axis 0 0 -20   XYZ
    dof rx ry rz
    limits (-160.0 20.0)
           (-70.0 70.0)
           (-70.0 60.0)
  end
  begin
     id 8 
     name rtibia
     direction -0.34202 -0.939693 0   
     length 6.85621   
     axis 0 0 -20   XYZ
    dof rx
    limits (-10.0 170.0)
 end
 begin
     id 9 
     name rfoot
     direction -0.0553036 -0.151945 0.98684   
     length 1.57293  
     axis -90 -7.62852e-016 -20   XYZ
    dof rx rz
    limits (-45.0 90.0)
           (-20.0 70.0)
  end
  begin
     id 10 
     name rtoes
     direction -1.53592e-011 -4.21964e-011 1   
     length 0.802812   
     axis -90 -7.62852e-016 -20   XYZ
    dof rx
    limits (-90.0 20.0)
  end
  begin
     id 11 
     name lowerback
     direction 0.00654913 0.996475 -0.0836396   
     length 1.97212   
     axis 0 0 0   XYZ
    dof rx ry rz
    limits (-20.0 45.0)
           (-30.0 30.0)
           (-30.0 30.0)
  end
  begin
     id 12 
     name upperback
     direction 0.0111875 0.994527 0.103877   
     length 1.89704   
     axis 0 0 0   XYZ
    dof rx ry rz
    limits (-20.0 45.0)
           (-30.0 30.0)
           (-30.0 30.0)
  end
  begin
     id 13 
     name thorax
     direction 0.00473652 0.989004 0.147814   
     length 1.94516   
     axis 0 0 0   XYZ
    dof rx ry rz
    limits (-20.0 45.0)
           (-30.0 30.0)
           (-30.0 30.0)
  end
  begin
     id 14 
     name lowerneck
     direction -0.00925808 0.999011 0.0434791   
     length 1.81771   
     axis 0 0 0   XYZ
    dof rx ry rz
    limits (-20.0 45.0)
           (-30.0 30.0)
           (-30.0 30.0)
  end
  begin
     id 15 
     name upperneck
     direction 0.00451595 0.964412 -0.264365   
     length 1.80434   
     axis 0 0 0   XYZ
    dof rx ry rz
    limits (-20.0 45.0)
           (-30.0 30.0)
           (-30.0 30.0)
  end
  begin
     id 16
     name head
     direction -0.00110849 0.995756 -0.0920241  
     length 1.84006  
     axis 0 0 0   XYZ
    dof rx ry rz
    limits (-20.0 45.0)
           (-30.0 30.0)
           (-30.0 30.0)
  end
  begin
     id 17 
     name lclavicle
     direction 0.921253 0.385213 0.0538957  
     length 3.67415  
     axis 0 0 0   XYZ
    dof ry rz
    limits (-20.0 10.0)
           (0.0 20.0)
  end
  begin
     id 18 
     name lhumerus
     direction 1 -4.48961e-011 6.73441e-028   
     length 4.32712   
     axis 180 -30 -90   XYZ
    dof rx ry rz
    limits (-60.0 90.0)
           (-90.0 90.0)
           (-90.0 90.0)
  end
  begin
     id 19
     name lradius
     direction 1 -4.48985e-011 -9.53507e-028   
     length 3.28587   
     axis 180 -30 -90   XYZ
    dof rx
    limits (-10.0 170.0)
  end
  begin
     id 20
     name lwrist
     direction 1 -4.48951e-011 -4.67472e-027   
     length 1.64293   
     axis 1.65735e-015 90 90   XYZ
    dof ry
    limits (-180.0 0.0)
 end
  begin
     id 21 
     name lhand
     direction 1 -4.48946e-011 -9.34945e-027   
     length 0.433158   
     axis 5.96574e-015 90 90   XYZ
    dof rx rz
    limits (-90.0 90.0)
           (-45.0 45.0)
  end
  begin
     id 22 
     name lfingers
     direction 1 -4.48882e-011 -1.86989e-026   
     length 0.349224   
     axis 1.19315e-014 90 90   XYZ
    dof rx
    limits (0.0 90.0)
  end
  begin
     id 23
     name lthumb
     direction 0.707107 -6.3493e-011 0.707107   
     length 0.501417   
     axis -90 45 2.85299e-015   XYZ
    dof rx rz
    limits (-45.0 45.0)
           (-45.0 45.0)
  end
  begin
     id 24 
     name rclavicle
     direction -0.884378 0.46502 -0.0403866   
     length 3.50218  
     axis 0 0 0   XYZ 
    dof ry rz
    limits (-10.0 20.0)
           (-20.0 0.0)
  end
  begin
     id 25 
     name rhumerus
     direction -1 -4.48964e-011 1.58188e-027  
     length 4.29104   
     axis 180 30 90   XYZ
    dof rx ry rz
    limits (-90.0 60.0)
           (-90.0 90.0)
           (-90.0 90.0)
  end
  begin
     id 26 
     name rradius
     direction -1 -4.48978e-011 -1.9722e-027   
     length 3.2272   
     axis 180 30 90   XYZ
    dof rx
    limits (-10.0 170.0)
  end
  begin
     id 27 
     name rwrist
     direction -1 -4.48969e-011 -4.67472e-027   
     length 1.6136   
     axis 1.65735e-015 -90 -90   XYZ
    dof ry
    limits (-180.0 0.0)
  end
  begin
     id 28
     name rhand
     direction -1 -4.48846e-011 -9.34945e-027   
     length 0.543623   
     axis 5.96574e-015 -90 -90   XYZ
    dof rx rz
    limits (-90.0 90.0)
           (-45.0 45.0)
  end
  begin
     id 29
     name rfingers
     direction -1 -4.49074e-011 -1.86989e-026   
     length 0.438283   
     axis 1.19315e-014 -90 -90   XYZ
    dof rx
    limits (0.0 90.0)
  end
  begin
     id 30
     name rthumb
     direction -0.707107 -6.34834e-011 0.707107   
     length 0.629289   
     axis -90 -45 -2.85299e-015   XYZ
    dof rx rz
    limits (-45.0 45.0)
           (-45.0 45.0)
  end
:hierarchy
  begin
    root lhipjoint rhipjoint lowerback
    lhipjoint lfemur
    lfemur ltibia
    ltibia lfoot
    lfoot ltoes
    rhipjoint rfemur
    rfemur rtibia
    rtibia rfoot
    rfoot rtoes
    lowerback upperback
    upperback thorax
    thorax lowerneck lclavicle rclavicle
    lowerneck upperneck
    upperneck head
    lclavicle lhumerus
    lhumerus lradius
    lradius lwrist
    lwrist lhand lthumb
    lhand lfingers
    rclavicle rhumerus
    rhumerus rradius
    rradius rwrist
    rwrist rhand rthumb
    rhand rfingers
  end

#!OML:ASF H:\GeneralSubjects\Female5\Project 1\Capture day 1\Session 1\Female5.ASF
:FULLY-SPECIFIED
:DEGREES
18
root -32.0474 15.6816 3.30628 -172.145 0.061036 -178.345
lowerback 5.05954 0.993317 4.04664
upperback -9.87423 3.01379 1.9588
thorax -13.5616 1.53686 -0.70046
lowerneck -16.7535 -2.77353 -6.24539
upperneck 34.9381 -7.90629 6.5921
head 15.6561 -4.42508 2.13386
rclavicle -6.4605e-015 -3.33958e-014
rhumerus -49.6387 23.3361 -88.2541
rradius 36.0014
rwrist -18.9687
rhand -16.7356 -23.8031
rfingers 7.12502
rthumb 9.49044 -53.5694
lclavicle -6.4605e-015 -3.33958e-014
lhumerus -45.6893 8.04247 76.9967
lradius 33.4197
lwrist -8.44553
lhand -23.195 31.5164
lfingers 7.12502
lthumb 3.25474 61.4713
rfemur 0 0 0
rtibia 0
rfoot 0 0
rtoes 0
lfemur -22.9328 -15.3431 -6.71163
ltibia 19.4597
lfoot -31.583 21.1348
ltoes -60.6749
19
root -32.0529 15.6811 3.30577 -172.147 0.0548401 -178.367
lowerback 5.01533 0.997558 3.89003
upperback -9.88844 3.00816 1.99339
thorax -13.5584 1.55492 -0.573703
lowerneck -16.918 -2.77823 -5.68623
upperneck 35.3642 -7.81188 5.62244
head 15.8116 -4.45194 1.63338
rclavicle -1.04362e-014 4.6118e-014
rhumerus -49.1578 22.5998 -87.6021
rradius 35.3355
rwrist -18.2841
rhand -16.5851 -23.3959
rfingers 7.12502
rthumb 9.63569 -53.1555
lclavicle -1.04362e-014 4.6118e-014
lhumerus -45.7777 8.30879 76.8575
lradius 33.3385
lwrist -8.75067
lhand -23.0455 31.5848
lfingers 7.12502
lthumb 3.39911 61.5375
rfemur 0 0 0
rtibia 0
rfoot 0 0
rtoes 0
lfemur -23.045 -15.3695 -6.77072
ltibia 19.6716
lfoot -31.6566 20.9767
ltoes -59.3851
20
root -32.0569 15.6792 3.30496 -172.186 0.0541052 -178.291
lowerback 5.0432 1.01375 3.8075
upperback -9.9135 3.03978 2.05932
thorax -13.6127 1.58509 -0.462892
lowerneck -17.0296 -2.78368 -5.59529
upperneck 35.7191 -7.87335 5.40924
head 16.0033 -4.51428 1.50592
rclavicle 1.11319e-014 1.59028e-015
rhumerus -49.4002 22.9344 -87.412
rradius 35.4747
rwrist -18.6619
rhand -16.4072 -23.2881
rfingers 7.12502
rthumb 9.80731 -53.0397
lclavicle 1.11319e-014 1.59028e-015
lhumerus -45.9404 8.36814 76.8479
lradius 33.3871
lwrist -8.7689
lhand -23.053 31.8648
lfingers 7.12502
lthumb 3.39189 61.8176
rfemur 0 0 0
rtibia 0
rfoot 0 0
rtoes 0
lfemur -23.0207 -15.1964 -6.74827
ltibia 19.6827
lfoot -31.0503 21.5898
ltoes -59.0166
21
root -32.0626 15.6761 3.30444 -172.244 0.0516127 -178.132
lowerback 5.12829 1.04089 3.86166
upperback -9.94615 3.11023 2.13376
thorax -13.7074 1.6201 -0.427486
lowerneck -17.0721 -2.77144 -5.72
upperneck 35.9971 -7.96681 5.5418
head 16.1762 -4.57479 1.56003
rclavicle -1.65985e-014 -2.46493e-014
rhumerus -49.6186 22.9034 -87.2502
rradius 35.5295
rwrist -18.6924
rhand -16.4855 -23.4942
rfingers 7.12502
rthumb 9.73176 -53.2494
lclavicle -1.65985e-014 -2.46493e-014
lhumerus -46.0813 8.45218 76.8155
lradius 33.3541
lwrist -8.85286
lhand -23.088 31.7781
lfingers 7.12502
lthumb 3.35811 61.7314
rfemur 0 0 0
rtibia 0
rfoot 0 0
rtoes 0
lfemur -22.9991 -15.0294 -6.58371
ltibia 19.7517
lfoot -30.7532 21.6737
ltoes -60.4575
22
root -32.0718 15.6742 3.30307 -172.278 0.0424457 -178.074
lowerback 5.13047 1.06113 3.86796
upperback -9.96158 3.15089 2.17097
thorax -13.7288 1.64354 -0.397772
lowerneck -17.0345 -2.73216 -5.8627
upperneck 36.171 -8.00527 5.71718
head 16.277 -4.60623 1.65041
rclavicle 6.16232e-015 2.8625e-014
rhumerus -49.6807 22.8423 -87.1091
rradius 35.4076
rwrist -18.7076
rhand -16.8224 -23.7014
rfingers 7.12502
rthumb 9.40666 -53.4715
lclavicle 6.16232e-015 2.8625e-014
lhumerus -46.1471 8.65818 76.6918
lradius 33.1553
lwrist -9.01413
lhand -23.1098 31.3989
lfingers 7.12502
lthumb 3.33706 61.3525
rfemur 0 0 0
rtibia 0
rfoot 0 0
rtoes 0
lfemur -23.0184 -15.0933 -6.52547
ltibia 19.8716
lfoot -31.0467 21.1067
ltoes -60.1316
23
root -32.082 15.6736 3.30209 -172.295 0.0247745 -178.095
lowerback 5.08536 1.06711 3.75501
upperback -9.96115 3.14705 2.19172
thorax -13.7054 1.65635 -0.31011
lowerneck -17.003 -2.67888 -6.00445
upperneck 36.2905 -8.03445 5.96459
head 16.356 -4.62046 1.77513
rclavicle -2.23633e-014 3.65764e-014
rhumerus -49.6453 22.7945 -86.9821
rradius 35.238
rwrist -18.7355
rhand -16.8985 -23.7439
rfingers 7.12502
rthumb 9.33327 -53.5173
lclavicle -2.23633e-014 3.65764e-014
lhumerus -46.2034 8.62538 76.6653
lradius 32.994
lwrist -8.80453
lhand -23.3006 31.2824
lfingers 7.12502
lthumb 3.15285 61.2389
rfemur 0 0 0
rtibia 0
rfoot 0 0
rtoes 0
lfemur -23.0392 -15.0869 -6.62483
ltibia 19.9101
lfoot -30.7746 21.2749
ltoes -60.2422
24
root -32.0897 15.6729 3.3042 -172.297 0.0469277 -178.132
lowerback 5.09223 1.06497 3.56398
upperback -9.96879 3.12387 2.2085
thorax -13.7277 1.66592 -0.182126
lowerneck -17.0318 -2.61597 -6.02148
upperneck 36.4024 -8.04528 6.13079
head 16.4334 -4.61591 1.84592
rclavicle -2.88238e-014 -3.73715e-014
rhumerus -49.5811 22.7438 -86.7673
rradius 35.0002
rwrist -18.7717
rhand -16.5758 -23.8202
rfingers 7.12502
rthumb 9.64467 -53.5794
lclavicle -2.88238e-014 -3.73715e-014
lhumerus -46.244 8.56767 76.58
lradius 32.8397
lwrist -8.62437
lhand -23.302 31.4016
lfingers 7.12502
lthumb 3.15147 61.358
rfemur 0 0 0
rtibia 0
rfoot 0 0
rtoes 0
lfemur -23.0817 -14.9342 -6.72704
ltibia 19.9512
lfoot -30.216 21.6673
ltoes -60.6681
25
root -32.0959 15.6735 3.30705 -172.314 0.0956686 -178.136
lowerback 5.15829 1.05963 3.55154
upperback -10.0131 3.12228 2.18109
thorax -13.8215 1.664 -0.208501
lowerneck -16.8809 -2.5188 -6.06194
upperneck 36.4305 -7.99266 6.29661
head 16.418 -4.59399 1.93701
rclavicle -6.16232e-015 1.43125e-014
rhumerus -49.3503 21.9558 -86.3824
rradius 34.3945
rwrist -18.116
rhand -16.4663 -23.5717
rfingers 7.12502
rthumb 9.75028 -53.326
lclavicle -6.16232e-015 1.43125e-014
lhumerus -46.3849 8.59745 76.3432
lradius 32.7324
lwrist -8.70895
lhand -22.9608 31.5292
lfingers 7.12502
lthumb 3.48098 61.4805
rfemur 0 0 0
rtibia 0
rfoot 0 0
rtoes 0
lfemur -23.0937 -14.8827 -6.74968
ltibia 20.0345
lfoot -30.3512 21.3707
ltoes -60.2862
26
root -32.1021 15.675 3.31095 -172.299 0.101293 -177.998
lowerback 5.19051 1.06462 3.61043
upperback -10.036 3.15131 2.21926
thorax -13.8696 1.67612 -0.20629
lowerneck -16.8115 -2.46864 -5.97726
upperneck 36.4116 -7.93024 6.26142
head 16.3786 -4.56329 1.92032
rclavicle 1.13307e-014 -3.65764e-014
rhumerus -49.3966 21.5931 -86.133
rradius 34.3047
rwrist -17.8491
rhand -16.6395 -23.1129
rfingers 7.12502
rthumb 9.58316 -52.8749
lclavicle 1.13307e-014 -3.65764e-014
lhumerus -46.5018 8.69428 76.1361
lradius 32.7175
lwrist -8.83578
lhand -22.8376 31.6838
lfingers 7.12502
lthumb 3.59991 61.6331
rfemur 0 0 0
rtibia 0
rfoot 0 0
rtoes 0
lfemur -23.1912 -14.8727 -6.58552
ltibia 20.1704
lfoot -30.7752 20.8561
ltoes -59.8834
27
root -32.1091 15.6756 3.31586 -172.252 0.0708095 -177.86
lowerback 5.16228 1.06565 3.60894
upperback -10.043 3.16409 2.27168
thorax -13.864 1.68896 -0.149637
lowerneck -16.8635 -2.47334 -5.87934
upperneck 36.4067 -7.94187 6.21919
head 16.3827 -4.55529 1.88186
rclavicle 9.64106e-015 1.59028e-015
rhumerus -49.5163 21.7182 -86.0235
rradius 34.4683
rwrist -17.9772
rhand -16.5258 -22.958
rfingers 7.12502
rthumb 9.69292 -52.715
lclavicle 9.64106e-015 1.59028e-015
lhumerus -46.5409 8.8946 75.906
lradius 32.6576
lwrist -8.89919
lhand -23.3315 31.7382
lfingers 7.12502
lthumb 3.12297 61.6951
rfemur 0 0 0
rtibia 0
rfoot 0 0
rtoes 0
lfemur -23.3491 -14.823 -6.41646
ltibia 20.2808
lfoot -30.8576 20.799
ltoes -59.468
28
root -32.1184 15.6757 3.31793 -172.232 0.0440386 -177.881
lowerback 5.15252 1.05039 3.65288
upperback -10.0629 3.14508 2.22676
thorax -13.8773 1.67236 -0.220278
lowerneck -16.8416 -2.51886 -5.99101
upperneck 36.3831 -7.97927 6.24125
head 16.3755 -4.58341 1.90426
rclavicle -1.23246e-014 -4.77083e-015
rhumerus -49.5197 21.6272 -86.0568
rradius 34.3559
rwrist -17.9474
rhand -16.3343 -23.0768
rfingers 7.12502
rthumb 9.87768 -52.8251
lclavicle -1.23246e-014 -4.77083e-015
lhumerus -46.6051 9.05713 75.6498
lradius 32.5419
lwrist -8.88281
lhand -23.9319 31.7083
lfingers 7.12502
lthumb 2.54311 61.6729
rfemur 0 0 0
rtibia 0
rfoot 0 0
rtoes 0
lfemur -23.3991 -14.8599 -6.46482
ltibia 20.3083
lfoot -30.8054 20.8254
ltoes -58.3482
29
root -32.1292 15.6753 3.3189 -172.217 0.0198539 -177.924
lowerback 5.12591 1.03761 3.65272
upperback -10.0704 3.12569 2.21114
thorax -13.8687 1.66277 -0.233348
lowerneck -16.8742 -2.60435 -6.21324
upperneck 36.4137 -8.03789 6.23659
head 16.4157 -4.63917 1.92901
rclavicle 1.63997e-014 6.36111e-015
rhumerus -50.1414 22.5926 -86.5042
rradius 34.9333
rwrist -19.0985
rhand -16.4981 -23.4747
rfingers 7.12502
rthumb 9.71963 -53.2305
lclavicle 1.63997e-014 6.36111e-015
lhumerus -46.6865 9.28223 75.4309
lradius 32.4164
lwrist -9.1075
lhand -24.0233 31.674
lfingers 7.12502
lthumb 2.45481 61.6397
rfemur 0 0 0
rtibia 0
rfoot 0 0
rtoes 0
lfemur -23.4437 -14.8937 -6.55812
ltibia 20.3583
lfoot -30.7648 20.5104
ltoes -57.6578
30
root -32.1395 15.6744 3.32074 -172.217 0.00862708 -177.916
lowerback 5.12076 0.991931 3.99408
upperback -10.1663 3.11525 2.11833
thorax -13.9632 1.61924 -0.525865
lowerneck -16.4273 -2.59222 -6.78482
upperneck 36.2795 -8.04396 6.66317
head 16.2923 -4.6912 2.22132
rclavicle 1.88845e-014 1.19271e-014
rhumerus -50.5029 22.2474 -86.5935
rradius 35.0206
rwrist -18.8305
rhand -16.6308 -23.5713
rfingers 7.12502
rthumb 9.59159 -53.333
lclavicle 1.88845e-014 1.19271e-014
lhumerus -47.0137 9.42748 75.0657
lradius 32.3544
lwrist -9.32882
lhand -23.8109 31.6755
lfingers 7.12502
lthumb 2.66 61.6386
rfemur 0 0 0
rtibia 0
rfoot 0 0
rtoes 0
lfemur -23.4777 -14.7314 -6.61423
ltibia 20.3792
lfoot -30.2532 20.6783
ltoes -58.3761
